<svg xmlns="http://www.w3.org/2000/svg" viewBox="0 0 989.1 145.02"><defs><style>.cls-1{fill:#697cf7;}.cls-2{fill:#687bf5;}.cls-3{fill:#687af4;}</style></defs><g id="Layer_2" data-name="Layer 2"><g id="Layer_1-2" data-name="Layer 1"><path class="cls-1" d="M854.8,94.9c-1-1.15-.54-2.52-.54-3.79,0-28.82,0-57.64-.1-86.47,0-3.16.78-4,4-4,8.7.24,17.41.15,26.11,0a8,8,0,0,1,5.84,2.21Q923.19,32.51,956.35,62a8.79,8.79,0,0,0,1.17.76c.73-1.29.39-2.49.39-3.63,0-18.18.11-36.36-.07-54.54,0-3.27.95-4,4.06-3.89,9.06.19,18.13,0,27.2,0V94.79H955.71c-18.09-16.14-36.13-32.33-54.29-48.39-5.1-4.52-9.8-9.5-15.51-13.32-.08-.22-.15-.64-.29,0-.07,1.42-.21,2.84-.22,4.26q-.06,28.75-.1,57.5Z"></path><path class="cls-1" d="M285.05,91.34V87.53c0-27.76,0-55.52-.06-83.28,0-2.72.59-3.65,3.56-3.64,37.13.1,74.26.05,111.39.08,12,0,19.46,7.18,19.94,19.06.15,3.82,0,7.66.11,11.48.22,6.7-2.85,11.41-8.63,14.61-.81.45-1.83.62-2.35,1.58.44,1.12,1.56,1.42,2.43,2a17.05,17.05,0,0,1,8.48,15.3c0,3.47.08,6.94,0,10.41-.37,12.2-7.89,19.53-20.24,19.58-15.73.08-31.45,0-47.17,0q-50.26,0-100.51.06c-2.61,0-4.18-.59-5.38-3-2.29-4.61-5-9-7.4-13.56a3.65,3.65,0,0,0-3.68-2.2q-25,.1-50.07,0a3.8,3.8,0,0,0-3.94,2.35c-2.38,4.69-5.08,9.23-7.51,13.91a4.13,4.13,0,0,1-4.26,2.5q-15.78-.15-31.57,0c-2.59,0-3.32-.37-1.78-2.9Q163.06,48.06,189.57,4.2A6.7,6.7,0,0,1,195,.57c9.66-.85,19.31-.58,29-.25,3.92.14,6.17,2.06,8,5.12q17.63,29.07,35.31,58.09,8.49,14,16.94,28ZM351,36c10.76,0,21.51-.06,32.26,0,3.4,0,5.14-1.49,5.65-4.72.75-4.74-1.39-7.32-6.24-7.33q-28.82,0-57.64,0c-9,0-8.93,0-8.94,9,0,2.7,1,3.08,3.37,3C330,35.9,340.49,36,351,36Zm.29,35.23c10.64,0,21.29,0,31.93,0,3.15,0,5-1.28,5.58-4.4.8-4.73-1.35-7.24-6.28-7.24q-29,0-58.07,0c-8.41,0-8.31,0-8.35,8.49,0,2.53.72,3.23,3.25,3.2C330,71.12,340.64,71.19,351.29,71.19ZM196,52.36h28.82c-4.88-8.77-9.54-17.15-14.5-26Z"></path><path class="cls-1" d="M125.32,47.6a10.82,10.82,0,0,0,1.27.89q9.84,5.17,10.12,16.2a85.71,85.71,0,0,1-.56,14.68c-1.33,9-8.73,15.24-19.06,15.27-37.5.12-75,0-112.49.1-2.29,0-2.81-.78-2.8-2.9q.09-44.15,0-88.29c0-2.49.9-2.92,3.14-2.91,37.49.06,75,0,112.48.06,10.68,0,17.67,6.48,18.93,16.92a104,104,0,0,1,.4,14.33c-.12,6.46-3.14,11.14-9,14-.65.31-1.28.67-1.9,1C125.73,47.05,125.67,47.17,125.32,47.6Zm-57-23.67H41.8c-8.91,0-8.78,0-8.88,8.76,0,2.77.86,3.34,3.49,3.32,21-.1,42.07,0,63.1-.06,4.48,0,6.17-1.69,6.18-6s-1.77-6-6.23-6Q83.88,23.91,68.27,23.93Zm-.75,47.26q15.77,0,31.53,0c4.81,0,6.68-1.71,6.63-6-.05-4-1.9-5.66-6.55-5.66H41.5c-8.68,0-8.6,0-8.55,8.64,0,2.31.63,3.07,3,3C46.5,71.13,57,71.19,67.52,71.19Z"></path><path class="cls-1" d="M779.63.68q23.6,0,47.17,0c12.74,0,20.12,7.2,20.17,19.76q.1,27.29,0,54.56c-.05,12.53-7.47,19.81-20.13,19.82q-47.16.06-94.34,0c-13,0-20.49-7.47-20.53-20.33q-.08-26.56,0-53.12C712,8,719.34.72,732.82.72h46.81Zm0,70.66v-.15c9.42,0,18.84,0,28.27,0,6.2,0,7.9-1.73,7.92-7.9q.06-15.6,0-31.19c0-6.08-1.91-7.92-8-7.91q-28.46,0-56.91.07c-5.3,0-7.61,2-7.68,7.24q-.19,16.32,0,32.63c.07,5.2,2.43,7.2,7.77,7.21C760.56,71.36,770.1,71.34,779.65,71.34Z"></path><path class="cls-1" d="M486.05,94.75c-18.63,0-37.25-.06-55.87.06-2.86,0-3.76-.72-3.64-3.58.23-5.49.23-11,0-16.5-.11-2.85.76-3.61,3.63-3.6q45.72.15,91.43.06c7.14,0,9.48-2.65,8.85-9.74-.14-1.51-.63-2.15-2.17-2.1-1.93.06-3.87,0-5.8,0q-36.64,0-73.29,0a39.06,39.06,0,0,1-7.56-.65c-9.43-1.87-14.56-8.34-14.9-19.7-.36-11.95-.06-23.92-.16-35.88,0-2.16.87-2.59,2.8-2.58,8.59.07,17.18.11,25.76,0,2.41,0,2.74,1,2.72,3-.08,7.78,0,15.55,0,23.33,0,6.94,2.11,9,9,9,20.08,0,40.15,0,60.23.07,2.7,0,3.49-.69,3.44-3.4-.17-9.44,0-18.9-.12-28.35,0-2.68.5-3.78,3.54-3.7,8.22.21,16.44.14,24.67,0,2.32,0,3.12.6,3.11,3-.09,23.57.06,47.14-.12,70.7-.1,13.46-7.53,20.51-21.09,20.54C522.33,94.78,504.19,94.75,486.05,94.75Z"></path><path class="cls-1" d="M644.66,94.75q-26.65,0-53.33,0c-14.66,0-21.82-6.7-21.93-21.11-.17-23.32,0-46.65-.1-70,0-2.34.66-3.08,3.05-3,8.34.13,16.69.15,25,0,2.69-.06,3.16,1,3.15,3.33-.09,19.25-.06,38.51,0,57.77a25.54,25.54,0,0,0,.22,4.29c.62,3.65,2.73,5.18,7,5.18,30.59,0,61.18.08,91.78-.09,3.72,0,4.76.93,4.54,4.54a151,151,0,0,0,0,15.78c.11,2.73-.75,3.41-3.45,3.39C681.91,94.69,663.28,94.75,644.66,94.75Z"></path><path class="cls-2" d="M140.71,110c6.81,0,13.61,0,20.41,0,1.38,0,1.81.37,1.71,1.73a26.86,26.86,0,0,0,0,4.66c.18,1.81-.32,2.39-2.27,2.37-10.82-.11-21.64-.06-32.46-.06-3.11,0-3.58.48-3.59,3.62,0,3.69,0,7.38,0,11.07,0,2.19.73,2.91,2.94,2.91,7.38,0,14.77,0,22.16,0,1.35,0,1.78-.38,1.75-1.75-.06-2.74,0-2.75-2.81-2.75-6.09,0-12.18,0-18.27,0-1.35,0-1.83-.32-1.74-1.71.12-1.87.07-3.75,0-5.63,0-1,.29-1.36,1.32-1.36q15.65,0,31.3,0c1.13,0,1.64.4,1.63,1.59,0,4.46.09,8.93,0,13.39-.13,4.17-2.74,6.77-6.94,6.79q-17.88.12-35.77,0c-4.43,0-7.07-2.87-7.09-7.28q0-10.2,0-20.39c0-4.43,2.64-7.17,7.12-7.22,6.87-.09,13.74,0,20.61,0Z"></path><path class="cls-3" d="M215.4,110c6.87,0,13.73,0,20.6,0,1.34,0,1.84.34,1.75,1.72a38.18,38.18,0,0,0,0,5.24c.08,1.36-.34,1.76-1.72,1.74-5.31-.08-10.63,0-15.94,0-6,0-12.05,0-18.08,0-1.6,0-2.68.46-2.71,2.24s1.16,2.22,2.71,2.22c9.27,0,18.53.05,27.8.07,5.08,0,7.59,2.25,7.9,7.27a38,38,0,0,1-.17,8.33c-.67,4-2.93,6.15-7,6.17-13.8.08-27.6,0-41.4.05-1,0-1.38-.31-1.35-1.32.05-1.88.1-3.76,0-5.63-.09-1.46.39-1.86,1.85-1.85,9.52.06,19.05,0,28.57,0,1.88,0,3.76-.05,5.64,0,1.65.06,2.42-.68,2.38-2.3s-.83-2.13-2.36-2.12q-13.71,0-27.41,0c-6,0-8.37-2.2-8.69-8.17a40.72,40.72,0,0,1,.13-7c.52-4.51,2.87-6.63,7.48-6.65C202.05,110,208.72,110,215.4,110Z"></path><path class="cls-3" d="M392,145c-6.74,0-13.48,0-20.22,0-1.44,0-1.95-.35-1.83-1.82a32.74,32.74,0,0,0,0-5.05c-.11-1.51.35-2,1.91-1.95,11.28.06,22.55,0,33.83,0,.95,0,1.94.15,2.48-1,.86-1.81-.09-3.37-2.15-3.37H378.83c-6.43,0-8.74-2.28-8.85-8.78,0-1.94-.06-3.88,0-5.82q.38-7.17,7.57-7.21c4.54,0,9.08,0,13.61,0,8.94,0,17.89,0,26.83,0,1.38,0,2,.25,1.87,1.78a34,34,0,0,0,0,5.24c.1,1.44-.47,1.68-1.77,1.68-11.28,0-22.55,0-33.83,0-1.56,0-2.72.3-2.76,2.15,0,1.39.54,2.24,2,2.27,1.94,0,3.88.11,5.83.11q11.37,0,22.74,0c4.89,0,7.28,2.2,7.72,7a46.5,46.5,0,0,1,0,7.37c-.34,5.11-2.81,7.41-8,7.42C405.25,145,398.64,145,392,145Z"></path><path class="cls-3" d="M81.34,110h17.1c5.28,0,7.88,2.61,7.89,7.87q0,9.61,0,19.22c0,5.19-2.71,7.86-8,7.86q-17.1,0-34.2,0c-5,0-7.71-2.62-7.76-7.63q-.11-9.89,0-19.8c0-5,2.64-7.48,7.62-7.48,5.77,0,11.53,0,17.29,0Zm0,26.2v-.05c3.5,0,7,0,10.49,0,2.28,0,2.91-.63,2.93-2.86q0-5.84,0-11.65c0-2.24-.8-3-3.09-3q-10.39,0-20.8,0c-2.11,0-2.93.8-3,2.94,0,3.88,0,7.77,0,11.65,0,2.13.8,2.91,2.94,2.92C74.35,136.24,77.85,136.22,81.34,136.22Z"></path><path class="cls-3" d="M343.61,110c5.89,0,11.78.06,17.68,0,1.65,0,2.13.48,2,2.07a28.06,28.06,0,0,0,0,4.85c.13,1.54-.49,1.8-1.88,1.79-9.19-.06-18.39,0-27.59,0-2.93,0-3.48.55-3.5,3.5,0,3.49-.13,7-.08,10.48.05,3.15.56,3.58,3.65,3.58,9.14,0,18.27,0,27.4,0,1.61,0,2.18.4,2,2a49.17,49.17,0,0,0,0,5.43c0,1-.34,1.33-1.34,1.33-12.05,0-24.09,0-36.14-.05-4.32,0-7-2.81-7-7.14-.09-6.59-.14-13.19-.08-19.79,0-5.54,2.61-8,8.19-8Z"></path><path class="cls-3" d="M27.66,145H8.05c-5.23,0-7.88-2.37-8-7.61-.15-8.66,0-17.33-.08-26C0,110.19.48,110,1.5,110c2.85,0,5.7.08,8.55,0,1.22,0,1.51.37,1.5,1.54-.06,7,0,14,0,20.95,0,3.13.62,3.74,3.71,3.74H47.28c2.64,0,2.64,0,2.64,2.55,0,1.35-.1,2.72,0,4.07.16,1.65-.3,2.22-2.09,2.18C41.13,144.9,34.4,145,27.66,145Z"></path><path class="cls-3" d="M269.18,110c7.64,0,15.28,0,22.91,0,1.46,0,1.94.36,1.83,1.82a36.86,36.86,0,0,0,0,5c.09,1.36-.37,1.76-1.73,1.74-5.25-.07-10.49,0-15.73-.06-1.52,0-1.8.45-1.79,1.85.07,7.5,0,15,.07,22.5,0,1.43-.32,1.91-1.81,1.84a68.27,68.27,0,0,0-7.57,0c-1.64.1-1.88-.55-1.87-2,.06-7.44,0-14.88.07-22.31,0-1.57-.46-1.92-1.95-1.9-5.24.09-10.48,0-15.73.06-1.15,0-1.63-.26-1.57-1.5a50.17,50.17,0,0,0,0-5.62c-.08-1.28.46-1.48,1.57-1.47C253.64,110,261.41,110,269.18,110Z"></path><path class="cls-2" d="M181,127.57c0,5.31,0,10.61,0,15.91,0,1.18-.31,1.56-1.52,1.52-2.85-.08-5.69-.06-8.54,0-1,0-1.37-.27-1.37-1.3q0-16.2,0-32.39c0-1,.36-1.31,1.35-1.3,2.91.06,5.82.08,8.73,0,1.2,0,1.35.47,1.34,1.48C181,116.84,181,122.21,181,127.57Z"></path><path class="cls-2" d="M300.71,127.58c0-5.3.05-10.6,0-15.9,0-1.39.42-1.74,1.75-1.69,2.78.1,5.57.07,8.35,0,1,0,1.33.27,1.33,1.3q-.06,16.19,0,32.37c0,1-.32,1.34-1.33,1.32-2.85-.05-5.69-.07-8.54,0-1.19,0-1.55-.34-1.54-1.53C300.74,138.18,300.71,132.88,300.71,127.58Z"></path></g></g></svg>