<svg width="331" height="60" viewBox="0 0 331 60" fill="none" xmlns="http://www.w3.org/2000/svg">
<g clip-path="url(#clip0_901_2582)">
<path d="M89.3125 11.1484V29.1773C92.1464 25.6409 95.855 24.4159 99.7697 24.4159C109.551 24.4159 116.365 31.0149 116.365 41.9016C116.365 52.7882 109.685 59.3873 99.9034 59.3873C95.7213 59.3873 91.944 58.4358 88.8389 54.4216L88.2316 58.7093H79.5312V11.1484H89.3125ZM89.4462 41.9016C89.4462 48.2964 94.0331 50.5423 98.4177 50.5423C103.612 50.5423 106.58 46.7324 106.58 41.9016C106.58 37.0707 103.41 33.2608 98.4177 33.2608C93.9644 33.2608 89.4462 36.2541 89.4462 41.9016Z" fill="#007B64"/>
<path d="M120.746 41.9711C120.746 31.8318 127.896 24.3506 138.96 24.3506C150.025 24.3506 157.24 31.8357 157.24 41.9711C157.24 52.1066 150.292 59.4568 138.96 59.4568C127.628 59.4568 120.746 52.1066 120.746 41.9711ZM147.393 41.9711C147.393 37.7528 144.831 33.1262 138.96 33.1262C133.09 33.1262 130.596 37.7528 130.596 41.9711C130.596 46.1894 133.094 50.7467 138.96 50.7467C144.827 50.7467 147.393 46.3936 147.393 41.9711Z" fill="#007B64"/>
<path d="M184.489 34.6208C181.991 32.8526 179.631 32.1707 176.594 32.1707C173.558 32.1707 171.805 33.3264 171.805 34.9598C171.805 36.7974 173.493 37.8182 176.728 37.8837C183.271 38.0879 191.165 39.4478 191.23 48.7011C191.299 54.1444 187.25 59.9961 176.659 59.9961C171.736 59.9961 166.676 59.0445 161.008 54.2792L165.19 47.3373C169.303 50.7389 173.283 51.4863 176.793 51.5556C179.627 51.625 181.854 50.4654 181.785 48.6972C181.785 47.1332 180.639 45.8388 176.117 45.7039C169.911 45.4304 162.154 42.8455 162.154 34.9521C162.154 27.0587 169.303 24.1348 176.522 24.1348C181.647 24.1348 185.765 25.4291 189.271 28.4879L184.481 34.6131L184.489 34.6208Z" fill="#007B64"/>
<path d="M218.488 58.7095V40.6806C218.488 36.2581 216.735 33.3304 212.755 33.3304C208.776 33.3304 206.752 36.9361 206.752 40.7461V58.7095H197.039V25.0979H205.537L206.213 28.9079C208.306 25.2328 212.148 24.3506 214.982 24.3506C218.626 24.3506 222.537 25.7105 224.695 30.6106C227.662 26.0533 230.832 24.2812 235.755 24.2812C242.703 24.2812 249.043 27.8177 249.043 40.3378V58.7095H239.261V40.5419C239.261 36.3236 238.116 33.5345 234.201 33.5345C230.286 33.5345 228.063 36.8668 228.063 40.6806V58.7095H218.484H218.488Z" fill="#007B64"/>
<path d="M281.222 25.098H290.327V58.7095H281.558L281.019 54.4912C278.793 58.0277 274.003 59.3914 270.765 59.4569C260.781 59.5262 253.562 52.9927 253.562 41.9018C253.562 30.811 261.186 24.2119 271.036 24.3468C275.218 24.3468 279.129 25.9801 280.886 28.9734L281.222 25.0941V25.098ZM263.279 41.9057C263.279 47.4838 267.19 50.7506 272.048 50.7506C277.513 50.7506 280.886 46.463 280.886 42.2447C280.886 37.4138 277.849 32.9914 272.048 32.9914C267.19 32.9914 263.279 36.3236 263.279 41.9057Z" fill="#007B64"/>
<path d="M321.219 58.7089V40.9497C321.219 35.7799 318.992 33.1256 314.337 33.1256C309.818 33.0563 306.782 37.0049 306.782 41.358V58.7089H297.203V25.0974H305.972L306.308 29.385C309.276 25.5057 313.053 24.2152 317.102 24.2807C324.591 24.2807 330.996 27.8171 330.996 40.8804V58.7051H321.215L321.219 58.7089Z" fill="#007B64"/>
<path d="M6.48031e-05 34.5404C-0.0304896 21.0957 10.7476 10.1744 24.0731 10.1397C37.3987 10.1089 48.2302 20.9802 48.2608 34.4209L48.3181 58.7599L24.1877 58.8177C10.8622 58.8524 0.0306192 47.9811 6.48031e-05 34.5404Z" fill="#37B4FA"/>
<path d="M31.1335 7.16973C40.5367 -2.35707 55.8139 -2.3956 65.259 7.08883C74.7041 16.5733 74.7423 31.9826 65.3392 41.5094L48.3166 58.7601L31.2137 41.5903C21.7686 32.1059 21.7304 16.6965 31.1335 7.16973Z" fill="#C8E655"/>
<path d="M48.2657 34.4213C48.239 22.4598 39.657 12.544 28.3786 10.5215C21.8629 20.0252 22.8139 33.1539 31.2202 41.5905L48.323 58.7603L48.2657 34.4213Z" fill="#007B64"/>
</g>
<defs>
<clipPath id="clip0_901_2582">
<rect width="331" height="60" fill="white"/>
</clipPath>
</defs>
</svg>
