<?xml version="1.0" encoding="UTF-8"?>
<!-- Generator: Adobe Illustrator 24.1.2, SVG Export Plug-In . SVG Version: 6.00 Build 0)  -->
<svg xmlns="http://www.w3.org/2000/svg" xmlns:xlink="http://www.w3.org/1999/xlink" version="1.1" id="Laag_1" x="0px" y="0px" viewBox="0 0 497.9 122.8" style="enable-background:new 0 0 497.9 122.8;" xml:space="preserve">
<style type="text/css">
	.st0{fill:#49B048;}
	.st1{fill:#DD2529;}
	.st2{fill:#F5F085;}
	.st3{fill:url(#SVGID_1_);}
	.st4{fill:none;}
</style>
<g>
	<g>
		<path class="st0" d="M53.9,45.1c0.2-0.1,0.5-0.2,0.7-0.3c1.5-0.8,2.7-2.1,3.9-3.2c1.1-1.1,2.4-2,3.8-2.6c2.9-1.3,6.1-1.8,9.1-2.9    c5.2-1.8,8.4-5,8.2-10.7c-0.1,1.6-0.3,3.2-1,4.6c-2.2,4.5-7.6,5.4-12.1,6.5c-3.2,0.6-6.5,1.8-9,4c-1.7,1.5-3,2.6-4.8,3.1    c0.1,0.5,0.2,1,0.3,1.6H53.9L53.9,45.1z"></path>
		<path class="st1" d="M46.4,30.1c3.6-2.1,8.1-2.6,12.2-2.6c4.4,0,8.8-0.5,13-1.5c2.5-0.7,8.2-2.1,8.9-4.9    c-1.4,4.4-15.1,5.3-19.3,5.3c-3.5,0-7.1-0.3-10.5,0.4c-3.2,0.6-6.7,1.9-8.7,4.6c0.6,0.2,1.3,0.5,1.9,0.8    C44.5,31.4,45.4,30.7,46.4,30.1L46.4,30.1z"></path>
		<path class="st2" d="M54,34.8c1.5-0.6,3.1-1.1,4.6-1.4c3.6-0.6,7.3-1,10.9-2.1c2.6-0.8,4.8-2.4,6.7-4.3c-2,1.8-4.3,3.2-6.9,3.8    c-3.5,0.8-7.3,1-10.9,1.4c-3.6,0.5-7,1.7-10.2,3.2c0.5,0.5,0.9,1,1.3,1.5C51,36.2,52.5,35.4,54,34.8L54,34.8z"></path>
	</g>
	<circle class="st0" cx="88.3" cy="55.9" r="15.2"></circle>
	<rect x="18.6" y="47.6" class="st1" width="35.1" height="3.5"></rect>
	<path class="st1" d="M34.4,32.8h3.7c7.1,0,12.8,5.7,12.8,12.8H21.6C21.6,38.5,27.3,32.8,34.4,32.8L34.4,32.8z"></path>
	<path class="st1" d="M36.2,26.9L36.2,26.9c1.4,0,2.5,1.1,2.5,2.5v1.3h-5v-1.3C33.7,28,34.8,26.9,36.2,26.9L36.2,26.9z"></path>
	<path class="st0" d="M116.1,89l-0.9-0.8l-9.1-7.9c-3.5-3-7.9-4.8-12.6-5l-17.8-0.7c-1.5-0.1-2.9-0.6-4-1.5L46.1,52.7   c-0.2-0.1-0.4-0.2-0.6-0.2h-16c-1.3,0-1.4,1.8-0.2,2.1l13.4,1.3c0.2,0,0.4,0.1,0.5,0.3l24.8,23.2c0.2,0.2,0.3,0.5,0.3,0.8   l-1.7,39.9l0,1.2c13.4-0.8,25.7-6,35.3-14.2c0.3-0.2,0.4-0.6,0.4-0.9l-0.1-0.9l-1.8-16.5c-0.1-0.9,0.9-1.5,1.7-1l9.3,7.1l0.9,0.7   l0.2,0.1c1.4-2,2.7-4.2,3.8-6.4L116.1,89L116.1,89z"></path>
	
		<linearGradient id="SVGID_1_" gradientUnits="userSpaceOnUse" x1="63.0756" y1="122.2579" x2="63.0756" y2="2.8" gradientTransform="matrix(1 0 0 -1 0 124)">
		<stop offset="0.36" style="stop-color:#F4EF82"></stop>
		<stop offset="1" style="stop-color:#49B048"></stop>
	</linearGradient>
	<path class="st3" d="M122.8,61.5c0-33-26.7-59.7-59.7-59.7S3.3,28.5,3.3,61.5s26.7,59.7,59.7,59.7c1.2,0,2.3,0,3.5-0.1l0-1.2   c-1.2,0.1-2.4,0.1-3.5,0.1c-7.9,0-15.6-1.5-22.8-4.6c-7-2.9-13.2-7.2-18.6-12.6c-5.4-5.4-9.6-11.6-12.6-18.6   C6.1,77,4.5,69.4,4.5,61.5s1.5-15.6,4.6-22.8c2.9-7,7.2-13.2,12.6-18.6c5.4-5.4,11.6-9.6,18.6-12.6c7.2-3.1,14.9-4.6,22.8-4.6   s15.6,1.5,22.8,4.6c7,2.9,13.2,7.2,18.6,12.6s9.6,11.6,12.6,18.6c3.1,7.2,4.6,14.9,4.6,22.8c0,5.1-0.6,10.1-1.9,14.9l1.2,0   C122.1,71.6,122.8,66.6,122.8,61.5L122.8,61.5z"></path>
</g>
<g>
	<g>
		<path class="st4" d="M281.5,54.4c-0.7-0.4-1.5-0.5-2.5-0.5c-1.7,0-3,0.8-4.1,2.3c-1.1,1.6-1.9,3.7-2.5,6.5l-0.1,0.6    c-0.6,2.8-0.6,5-0.2,6.6c0.5,1.5,1.6,2.3,3.4,2.3c1,0,1.9-0.3,2.7-0.8c0.8-0.5,1.5-1.2,2.2-2.2L283,56    C282.6,55.3,282.2,54.7,281.5,54.4L281.5,54.4z"></path>
		<path class="st4" d="M308.1,53.8c-1.3,0-2.3,0.6-3.3,1.7c-0.9,1.1-1.6,2.6-2.2,4.6h8.5l0.1-0.7c0.3-1.8,0.2-3.2-0.3-4.1    C310.5,54.3,309.5,53.8,308.1,53.8L308.1,53.8z"></path>
		<path class="st4" d="M335.9,53.8c-1.3,0-2.3,0.6-3.3,1.7c-0.9,1.1-1.6,2.6-2.2,4.6h8.5l0.1-0.7c0.3-1.8,0.2-3.2-0.3-4.1    C338.3,54.3,337.4,53.8,335.9,53.8L335.9,53.8z"></path>
		<path class="st4" d="M154,44.1h-7.1l-2.6,13h7.1c1.9,0,3.5-0.6,4.7-1.8c1.3-1.2,2.1-2.7,2.5-4.6c0.4-2.1,0.2-3.7-0.5-4.8    C157.4,44.7,156,44.1,154,44.1L154,44.1z"></path>
		<path class="st4" d="M181.8,53.8c-1.8,0-3.2,0.8-4.3,2.5c-1.1,1.6-1.8,3.8-2.3,6.4l-0.1,0.6c-0.5,2.8-0.4,5,0.1,6.6    c0.5,1.5,1.8,2.3,3.7,2.3c1.8,0,3.2-0.8,4.3-2.4c1.1-1.6,1.8-3.8,2.3-6.5l0.1-0.6c0.5-2.8,0.4-5-0.1-6.5S183.7,53.8,181.8,53.8    L181.8,53.8z"></path>
		<path class="st1" d="M155.2,38h-14.9l-7.9,39.7h7.8l2.9-14.4h7.1c4.4,0,8-1.1,10.9-3.2c2.8-2.2,4.6-5.3,5.4-9.4    c0.7-3.8,0.1-6.8-2-9.2C162.4,39.1,159.3,38,155.2,38L155.2,38z M158.7,50.7c-0.4,1.9-1.2,3.4-2.5,4.6c-1.3,1.2-2.9,1.8-4.7,1.8    h-7.1l2.6-13h7.1c2,0,3.4,0.6,4.1,1.8S159.1,48.7,158.7,50.7L158.7,50.7z"></path>
		<path class="st1" d="M229.2,53.8h4.6l1.1-5.6h-4.6l1.4-7.2H224l-1.4,7.2h-3.6l-1.1,5.6h3.6l-3,15c-0.7,3.3-0.4,5.7,0.7,7.2    c1.1,1.5,2.9,2.3,5.4,2.3c0.9,0,1.7-0.1,2.6-0.2c0.8-0.2,1.6-0.4,2.3-0.7l0.5-5.7c-0.4,0.1-0.7,0.2-1.1,0.2    c-0.3,0-0.7,0.1-1.1,0.1c-0.7,0-1.2-0.2-1.5-0.7c-0.3-0.4-0.3-1.3-0.1-2.5L229.2,53.8L229.2,53.8z"></path>
		<path class="st1" d="M255,48.2l-4.3,21.4c-0.7,0.8-1.5,1.4-2.4,1.8c-0.9,0.4-1.8,0.6-2.9,0.6c-1.3,0-2.2-0.4-2.6-1.2    c-0.4-0.8-0.4-2.4,0.1-4.8l3.6-17.8h-7.8L235.2,66c-0.8,4.2-0.6,7.3,0.7,9.3c1.3,2,3.3,3,6.1,3c1.7,0,3.2-0.3,4.6-1    c1.4-0.6,2.6-1.6,3.7-2.9l0.1,0l-0.2,3.3h6.9l5.9-29.5L255,48.2L255,48.2z"></path>
		<path class="st1" d="M284.4,51.4c-0.7-1.2-1.7-2.2-2.8-2.8c-1.1-0.6-2.4-1-3.9-1c-3.5,0-6.4,1.2-8.5,3.7    c-2.1,2.5-3.7,6.2-4.7,11.3l-0.1,0.6c-0.9,4.3-0.5,7.9,1,10.8c1.6,2.8,4,4.3,7.2,4.3c1.2,0,2.3-0.2,3.4-0.7c1-0.4,2-1.1,3-1.9    l0.1,0.1l-0.2,1c-0.4,2-1.2,3.5-2.4,4.7c-1.2,1.1-2.7,1.7-4.5,1.7c-1.4,0-2.6-0.1-3.7-0.4c-1.1-0.3-2.2-0.7-3.2-1.3l-2.6,5.9    c1.2,0.7,2.6,1.3,4.1,1.7c1.5,0.4,2.9,0.6,4.3,0.6c4.4,0,7.9-1.1,10.6-3.2c2.7-2.2,4.5-5.3,5.4-9.5l5.7-28.6h-6.8L284.4,51.4    L284.4,51.4z M280.4,69.1c-0.7,1-1.4,1.7-2.2,2.2c-0.8,0.5-1.7,0.8-2.7,0.8c-1.8,0-2.9-0.8-3.4-2.3s-0.4-3.7,0.2-6.6l0.1-0.6    c0.5-2.7,1.4-4.9,2.5-6.5c1.1-1.6,2.5-2.3,4.1-2.3c1,0,1.9,0.2,2.5,0.5c0.7,0.4,1.2,0.9,1.5,1.6L280.4,69.1L280.4,69.1z"></path>
		<path class="st1" d="M309.1,47.6c-3.9,0-7.2,1.3-9.8,4c-2.6,2.7-4.3,6.4-5,11l-0.2,1.1c-0.7,4.2-0.1,7.7,1.9,10.4    c2,2.7,4.9,4,8.9,4c2.2,0,4.2-0.3,6-0.9c1.8-0.6,3.3-1.3,4.6-2.2l-0.9-5.3c-1.4,0.7-2.6,1.3-3.8,1.6c-1.2,0.4-2.5,0.5-4.1,0.5    c-1.9,0-3.2-0.6-4-1.8c-0.8-1.2-1.1-2.9-1-5H318l0.7-4.3c0.7-4.1,0.1-7.4-1.6-9.8C315.5,48.8,312.8,47.6,309.1,47.6L309.1,47.6z     M311.3,59.3l-0.1,0.7h-8.5c0.5-1.9,1.2-3.5,2.2-4.6c0.9-1.1,2-1.7,3.3-1.7c1.4,0,2.4,0.5,2.9,1.4    C311.5,56.1,311.6,57.5,311.3,59.3L311.3,59.3z"></path>
		<path class="st1" d="M336.9,47.6c-3.9,0-7.2,1.3-9.8,4s-4.3,6.4-5,11l-0.2,1.1c-0.7,4.2-0.1,7.7,1.9,10.4c2,2.7,4.9,4,8.9,4    c2.2,0,4.2-0.3,6-0.9c1.8-0.6,3.3-1.3,4.6-2.2l-0.9-5.3c-1.4,0.7-2.6,1.3-3.8,1.6c-1.2,0.4-2.5,0.5-4.1,0.5c-1.9,0-3.2-0.6-4-1.8    c-0.8-1.2-1.1-2.9-1-5h16.3l0.7-4.3c0.7-4.1,0.1-7.4-1.6-9.8S340.6,47.6,336.9,47.6L336.9,47.6z M339.1,59.3L339,60h-8.5    c0.5-1.9,1.2-3.5,2.2-4.6c0.9-1.1,2-1.7,3.3-1.7c1.4,0,2.4,0.5,2.9,1.4C339.3,56.1,339.4,57.5,339.1,59.3L339.1,59.3z"></path>
		<path class="st1" d="M363.7,47.6c-3.5,0-6.3,0.8-8.5,2.5c-2.2,1.7-3.6,3.9-4,6.6c-0.4,2.4,0.1,4.4,1.5,5.7    c1.4,1.4,3.7,2.4,6.9,3.1c2,0.5,3.3,1.1,4,1.7c0.6,0.6,0.9,1.4,0.7,2.3c-0.2,1-0.7,1.8-1.4,2.4c-0.8,0.6-1.8,0.8-3,0.8    c-1.4,0-2.5-0.3-3.2-1c-0.7-0.7-1-1.8-0.8-3.4h-7.4c-0.4,2.6,0.3,4.9,2.2,6.9c1.9,2,4.6,3,8.2,3s6.6-0.8,8.9-2.4    c2.3-1.6,3.7-3.8,4.2-6.6c0.4-2.5-0.1-4.5-1.5-5.8c-1.4-1.4-3.8-2.4-7.1-3.2c-2.1-0.5-3.5-1-4-1.5c-0.6-0.6-0.8-1.3-0.6-2.3    c0.1-0.9,0.6-1.7,1.3-2.4c0.8-0.6,1.7-0.9,2.7-0.9c1.3,0,2.2,0.4,2.7,1.1c0.5,0.7,0.7,1.7,0.5,2.9h7.8c0.4-2.8-0.3-5.1-2.1-6.8    C369.8,48.5,367.2,47.6,363.7,47.6L363.7,47.6z"></path>
		<path class="st1" d="M182.8,47.6c-4.2,0-7.6,1.3-10.3,4c-2.6,2.7-4.3,6.3-5.1,11l-0.1,0.6c-0.7,4.5-0.1,8.1,1.7,10.8    c1.9,2.8,4.8,4.1,8.9,4.1s7.6-1.3,10.3-4c2.6-2.6,4.4-6.3,5.1-11l0.1-0.6c0.7-4.4,0.1-8-1.8-10.8C189.8,49,186.8,47.6,182.8,47.6    L182.8,47.6z M185.6,62.6l-0.1,0.6c-0.4,2.7-1.2,4.9-2.3,6.5c-1.1,1.6-2.5,2.4-4.3,2.4c-1.9,0-3.1-0.8-3.7-2.3    c-0.5-1.5-0.6-3.7-0.1-6.6l0.1-0.6c0.4-2.6,1.2-4.8,2.3-6.4c1.1-1.6,2.5-2.5,4.3-2.5c1.9,0,3.1,0.8,3.6,2.4    C186,57.7,186,59.9,185.6,62.6L185.6,62.6z"></path>
		<path class="st1" d="M216.8,48.2L216.8,48.2h-3.5c0,0,0,0-0.1,0c-2.4,0-4.5,1.8-5,4.2l0.8-4.2l0.1-0.5h-7.8l-5.7,28.8l-0.4,1.8    h7.8l0.1-0.5l0,0l0.1-0.7l2.5-12.7l1.3-6.4c0,0,0,0,0,0c0.5-2.4,2.6-4.1,5-4.1h3.5L216.8,48.2L216.8,48.2L216.8,48.2z"></path>
	</g>
	<g>
		<path class="st0" d="M408.9,40.9h-12.6L388.9,78h-3.2l7.4-37.1h-12.5l0.6-2.8h28.2L408.9,40.9L408.9,40.9z"></path>
		<path class="st0" d="M405.6,62.7c0.7-4.6,2.4-8.3,5-10.9s5.8-4,9.6-4s6.3,1.4,8.2,4.2c1.8,2.8,2.4,6.4,1.7,10.8l-0.1,0.9    c-0.8,4.6-2.4,8.3-5,10.9c-2.6,2.6-5.8,4-9.6,4s-6.4-1.4-8.2-4.1c-1.8-2.8-2.4-6.4-1.7-10.8L405.6,62.7L405.6,62.7z M408.7,63.6    c-0.6,3.6-0.3,6.6,0.9,8.8s3.3,3.3,6.2,3.3c2.7,0,5.1-1.2,7.1-3.5c2-2.3,3.3-5.2,3.8-8.7l0.1-0.9c0.6-3.6,0.3-6.5-0.9-8.8    c-1.2-2.3-3.2-3.4-6.2-3.4s-5.2,1.2-7.2,3.5c-2,2.4-3.3,5.2-3.8,8.6L408.7,63.6L408.7,63.6z"></path>
		<path class="st0" d="M462.3,73.3c-1.1,1.3-2.9,2.6-5.2,3.7c-2.4,1.1-5.3,1.7-8.7,1.7c-4.1,0-7.3-1.6-9.6-4.7    c-2.2-3.2-2.9-7.3-1.8-12.3l1.5-7.3c1.1-5.4,3.2-9.5,6.3-12.4c3.1-2.9,6.9-4.3,11.2-4.3c3.8,0,6.7,1.1,8.6,3.2    c1.9,2.2,2.8,5,2.5,8.5h-3.2c0.1-2.7-0.5-4.9-1.8-6.5c-1.3-1.6-3.5-2.4-6.8-2.4s-6,1.3-8.7,3.9c-2.6,2.6-4.3,5.9-5.1,10l-1.5,7.4    c-0.9,4.5-0.6,8,1,10.5c1.6,2.5,4.2,3.7,7.8,3.7c2.3,0,4.4-0.4,6.3-1.1c1.9-0.7,3.3-1.5,4.1-2.4l2.1-10.4h-9.8l0.6-2.8h12.9    L462.3,73.3L462.3,73.3z"></path>
		<path class="st0" d="M471.2,62.7c0.7-4.6,2.4-8.3,5-10.9s5.8-4,9.6-4s6.3,1.4,8.2,4.2c1.8,2.8,2.4,6.4,1.7,10.8l-0.1,0.9    c-0.8,4.6-2.4,8.3-5,10.9c-2.6,2.6-5.8,4-9.6,4s-6.4-1.4-8.2-4.1c-1.8-2.8-2.4-6.4-1.7-10.8L471.2,62.7L471.2,62.7z M474.2,63.6    c-0.6,3.6-0.3,6.6,0.9,8.8s3.3,3.3,6.2,3.3c2.7,0,5.1-1.2,7.1-3.5c2-2.3,3.3-5.2,3.8-8.7l0.1-0.9c0.6-3.6,0.3-6.5-0.9-8.8    c-1.2-2.3-3.2-3.4-6.2-3.4s-5.2,1.2-7.2,3.5s-3.3,5.2-3.8,8.6L474.2,63.6L474.2,63.6z"></path>
	</g>
</g>
</svg>
